<svg xmlns="http://www.w3.org/2000/svg" viewBox="0 0 4925 2147.5" height="2147.5" width="4925"><style>    .white path {        fill: white;    }</style><g id="sc5-logo"><defs><clipPath id="a"><path d="M0 1718h3940V0H0v1718z"/></clipPath></defs><g clip-path="url(#a)" transform="matrix(1.25 0 0 -1.25 0 2147.5)"><path d="M1247 555.224c0-287.6-219.207-448.988-531.637-448.988-190.355 0-382.72 57.934-544.108 173.8-35.175 24.83-59.975 70.35-59.975 120.008 0 82.763 66.225 146.904 148.987 146.904 41.382 0 70.356-14.483 91.047-28.967 109.66-80.693 229.84-130.35 370.536-130.35 130.352 0 209.15 51.726 209.15 136.558v4.14c0 80.692-49.776 122.073-291.857 184.146C347.403 786.96 159 867.654 159 1155.254v4.14c0 96.11 28.186 180.313 78.475 248.468-1.234-41.078 11.604-83.656 38.45-127.035 22.02-35.583 52.192-69.664 89.698-101.297 29.46-24.846 63.528-48.293 101.273-69.69 51.062-28.95 94.717-46.18 111.38-52.338 47.627-19.98 115.128-39.455 209.506-63.634C1081.59 917.312 1247 811.788 1247 559.362v-4.138zm-121.846 912.46c35.174-20.69 70.348-64.14 70.348-126.212 0-82.764-66.21-146.905-148.973-146.905-31.037 0-55.866 8.277-80.695 22.76-105.523 62.072-205.07 97.247-304.386 97.247-122.076 0-186.45-55.866-186.45-126.214v-4.138c0-2.556.28-5.063.372-7.53-82.606 50.87-125.26 101.848-146.868 136.763-25.75 41.608-34.484 80.61-26.074 115.92 12.108 50.834 57.127 84.838 82.868 100.583 10.934 6.688 18.843 11.27 24.453 14.39 73.65 33.454 160.425 51.62 256.062 51.62 175.87 0 328.99-45.52 459.342-128.283m148.544-720.133c-11.822 27.388-26.863 53.36-44.704 77.19-17.254 23.05-37.68 44.828-60.713 64.733-42.623 36.837-94.97 68.435-160.034 96.6-56.42 24.422-123.382 46.596-204.718 67.79l-.123.03-.123.033c-81.045 20.763-146.816 39.173-192.604 57.326-1.68.954-3.47 1.77-5.365 2.415-.084.028-1.58.54-4.288 1.535-12.256 5.183-22.856 10.358-31.678 15.573-13.423 7.935-22.238 15.448-26.47 22.97-2.423 4.307-5.877 12.152-5.877 30.474v4.138c0 15.81 7.362 28.68 22.03 39.346 22.05 16.036 58.54 24.868 102.535 24.868 42.13 0 84.846-7.28 130.473-22.255 44.706-14.674 91.283-36.404 142.332-66.433l.113-.057.105-.058c36.498-21.29 72.07-31.205 111.938-31.205 28.37 0 55.854 5.363 81.685 15.938 25.255 10.34 47.882 25.215 67.253 44.214 19.508 19.13 34.803 41.55 45.462 66.636 11 25.886 16.577 53.514 16.577 82.116 0 39.897-10.836 78.407-31.336 111.368-17.346 27.89-41.047 51.28-68.592 67.7-143.97 91.19-309.418 137.427-491.754 137.427-79.61 0-154.834-11.582-223.58-34.425-11.854-3.94-23.464-8.204-34.834-12.776-5.248-.987-10.035-3.105-14.58-5.296-3.08-1.486-6.695-3.367-10.8-5.615-44.606-20.464-85.06-46.032-120.78-76.398-52.354-44.51-93.05-98.057-121.06-159.156C111.497 1301.714 97 1232.773 97 1159.394v-4.138c0-39.266 3.234-76.343 9.714-110.198 6.522-34.073 16.49-66.158 29.684-95.365 13.006-28.795 29.54-55.763 49.17-80.155 18.67-23.2 40.776-44.866 65.715-64.4 90.67-71.02 214.406-112.42 372.304-152.736C736.92 623.34 806.13 598.95 841.4 575.653c11.63-7.683 19.235-14.842 22.904-21.885 1.943-3.73 4.696-10.426 4.696-25.44v-4.14c0-20.866-8.67-35.737-27.735-48.218-25.945-16.987-68.438-26.34-119.496-26.34-61.022 0-118.457 10.177-175.498 31.117-53.306 19.568-105.063 48.082-158.184 87.17l-.602.436-.606.42c-16.958 11.87-34.038 20.84-52.21 27.42-23.377 8.463-48.405 12.755-74.387 12.755-28.37 0-55.854-5.363-81.685-15.938-25.253-10.34-47.88-25.215-67.252-44.214-19.507-19.132-34.803-41.552-45.46-66.636-11-25.887-16.578-53.514-16.578-82.116 0-67.614 32.956-132.916 86.02-170.495C219.884 168.867 313.614 122.1 413.925 90.543c97.67-30.728 199.127-46.308 301.55-46.308 171.09 0 317.064 45.136 422.14 130.53 55.09 44.77 97.65 99.666 126.72 163.164C1294.05 402.828 1309 475.937 1309 555.224v4.138c0 35.026-2.83 68.48-8.635 99.434-5.878 31.34-14.773 61.202-26.667 88.756M3821 602.813c0-306.223-221.5-500.715-540.138-500.715-200.7 0-339.383 53.796-455.25 136.558-37.245 26.9-64.17 68.28-64.17 122.075 0 82.764 68.265 153.113 151.03 153.113 37.242 0 62.063-10.345 86.892-28.967 88.97-64.142 173.624-93.108 275.01-93.108 134.488 0 233.626 72.417 233.626 200.7v4.137c0 124.145-105.348 196.562-256.39 196.562-122.076 0-175.785-37.243-219.234-37.243-45.52 0-80.65 18.622-144.792 64.14-43.45 31.038-62.05 74.488-57.912 128.284l28.977 490.732c4.138 76.556 64.152 136.92 140.707 136.92h628.998c76.556 0 140.697-64.48 140.697-141.035 0-76.555-64.14-138.965-140.697-138.965h-488.3l-16.554-250.382c57.936 14.483 109.773 24.817 190.467 24.817 285.532 0 507.033-136.57 507.033-463.484v-4.137zm17.813 238.917c-28.407 66.21-70.48 122.532-124.942 167.4-50.816 41.868-112.347 73.604-182.83 94.33-65.358 19.22-138.433 28.963-217.17 28.963-48.965 0-88.383-3.62-123.094-9.174l7.315 110.75h430.265c26.982 0 53.29 5.256 78.197 15.67 24.013 10.04 45.63 24.37 64.25 42.613 18.76 18.38 33.527 39.784 43.892 63.628 10.855 24.97 16.358 51.438 16.358 78.673 0 27.158-5.468 53.654-16.254 78.755-10.295 23.962-24.946 45.54-43.545 64.14-18.6 18.6-40.18 33.61-64.14 43.907-25.103 10.785-51.6 16.615-78.758 16.615h-628.998c-53.14 0-103.174-20.703-140.886-57.638-36.916-36.155-58.83-85.274-61.712-137.986l-28.926-489.77c-2.775-37.17 2.727-71.563 16.355-102.133 14.177-31.804 36.855-59.016 67.403-80.836l.078-.067.077-.06c39.263-27.865 65.16-43.776 89.384-54.913 30.67-14.102 59.692-20.67 91.333-20.67 25.164 0 48.67 6.912 73.558 14.232 34.856 10.25 78.233 23.007 145.764 23.007 31.855 0 61.15-3.684 87.072-10.952 23.933-6.71 44.416-16.315 60.88-28.544 15.133-11.24 26.543-24.68 34.254-39.94 8.085-16 12.01-34.546 12.01-55.125v-4.137c0-42.877-14.555-76.694-43.604-100.51-14.49-11.882-32.303-21.193-53.113-27.677-22.39-6.975-47.52-10.512-74.783-10.512-44.185 0-84.18 6.286-122.317 19.217-38.4 13.02-76.388 33.26-116.146 61.872-37.977 28.34-76.118 40.986-123.586 40.986-28.786 0-56.83-5.88-83.352-17.48-25.226-11.03-47.918-26.712-67.45-46.61-19.402-19.77-34.676-42.675-45.395-68.078-11.174-26.48-16.84-54.385-16.84-82.944 0-36.308 8.728-70.388 25.94-101.29 15.39-27.634 36.89-51.538 63.902-71.045l.132-.096.132-.095c67.777-48.414 137.417-83.71 212.896-107.905 84.39-27.052 175.435-40.202 278.335-40.202 85.722 0 166.25 13.01 239.344 38.674 73.455 25.79 138.042 63.83 191.965 113.064 54.804 50.04 97.414 110.45 126.425 179.553C3867.95 441.57 3883 519.433 3883 602.812v4.138c0 87.62-14.94 166.613-44.187 234.78M1756.86 675.093c20.078-53.738 49.18-101.748 86.478-142.695 76.722-84.23 181.986-131.3 296.39-132.538l2.323-.026 2.317.15c77.71 4.974 146.046 25.93 208.912 64.064l1.35.818 1.307.888c24.456 16.595 54 25.734 83.187 25.734 4.383 0 8.68-.207 13.135-.63 38.9-3.706 74.012-22.226 98.864-52.15 24.735-29.782 36.347-67.29 32.698-105.612-2.062-21.654-8.35-41.964-18.69-60.366-10.298-18.33-24.087-33.74-40.993-45.818-56.238-37.456-114.973-64.996-179.525-84.18-65.134-19.358-135.294-29.96-214.49-32.41l-10.975-.34c-7.297-.154-14.033-.222-21.234-.222-45.083 0-90.704 5.04-135.594 14.98-43.728 9.683-87.182 24.102-129.155 42.855-41.23 18.42-81.284 41.134-119.055 67.507-37.425 26.133-72.774 55.957-105.023 88.646C1472.98 461.718 1398 647.22 1398 846.088v4.097c0 198.92 74.707 384.606 210.32 522.848 32.338 32.967 67.542 63.078 104.613 89.497 37.854 26.977 77.842 50.22 118.843 69.085 86.56 39.827 176.37 60.02 266.93 60.02 87.508 0 164.187-9.42 234.416-28.8 69.355-19.14 132.502-48.043 193.018-88.35 16.627-11.884 30.15-27.148 40.2-45.38 10.102-18.325 16.287-38.783 18.384-60.806 7.554-79.323-51.813-150.094-132.344-157.763-4.323-.412-8.995-.63-13.513-.63-29.646 0-59.442 9.14-83.9 25.735l-1.306.886-1.35.82c-30.734 18.643-61.63 32.797-94.453 43.273-35.61 11.366-72.646 18.16-113.226 20.776l-2.317.15-2.323-.025c-114.314-1.204-219.598-47.956-296.418-131.643-75.803-82.58-117.572-194.662-117.572-315.6v-4.092c0-61.415 10.398-120.324 30.86-175.092m383.762 564.432c73.023-4.706 129.452-24.815 179.523-55.187 35.157-23.856 77.246-36.43 118.716-36.43 6.423 0 13.017.3 19.4.91 114.487 10.9 198.98 111.997 188.184 225.358-5.72 60.076-34.72 115.757-85.137 151.38-131.793 88.013-278.518 128.08-462.598 128.08-206.45 0-396.278-96.128-534.65-237.185C1418.25 1267.814 1336 1066.71 1336 850.186v-4.097c0-216.53 82.568-417.497 228.952-565.882C1704.365 138.888 1895.64 47.76 2097.905 47.76c12.04 0 22.228.18 33.956.526h.14v.065c167 5.17 304.56 45.534 427.282 127.49 50.417 35.622 80.53 91.303 86.25 151.378 10.796 113.363-72.916 214.457-187.4 225.36-6.385.608-12.597.91-19.01.91-41.416 0-82.842-12.575-118-36.43-50.114-30.4-107.622-50.52-180.74-55.202C1940.277 464.026 1788 629.692 1788 850.186v4.092c0 218.242 152.42 383.136 352.622 385.247" fill="#292929"/></g></g><script>var modifier = window.location.hash.replace('#', '');var svg = document.getElementById('sc5-logo');svg.setAttribute('class', modifier);</script></svg>