<?xml version="1.0" encoding="UTF-8" standalone="no"?>
<svg
   xmlns:dc="http://purl.org/dc/elements/1.1/"
   xmlns:cc="http://creativecommons.org/ns#"
   xmlns:rdf="http://www.w3.org/1999/02/22-rdf-syntax-ns#"
   xmlns:svg="http://www.w3.org/2000/svg"
   xmlns="http://www.w3.org/2000/svg"
   viewBox="0 0 4925 2147.5"
   height="2147.5"
   width="4925"
   xml:space="preserve"
   version="1.1"
   id="svg2"><metadata
     id="metadata8"><rdf:RDF><cc:Work
         rdf:about=""><dc:format>image/svg+xml</dc:format><dc:type
           rdf:resource="http://purl.org/dc/dcmitype/StillImage" /></cc:Work></rdf:RDF></metadata><defs
     id="defs6"><clipPath
       id="clipPath16"
       clipPathUnits="userSpaceOnUse"><path
         id="path18"
         d="m 0,1718 3940,0 L 3940,0 0,0 0,1718 Z" /></clipPath></defs><g
     transform="matrix(1.25,0,0,-1.25,0,2147.5)"
     id="g10"><g
       id="g12"><g
         clip-path="url(#clipPath16)"
         id="g14"><g
           transform="translate(1247,555.2242)"
           id="g20"><path
             id="path22"
             style="fill:#292929;fill-opacity:1;fill-rule:nonzero;stroke:none"
             d="m 0,0 c 0,-287.601 -219.207,-448.988 -531.637,-448.988 -190.355,0 -382.721,57.934 -544.108,173.801 -35.175,24.829 -59.975,70.349 -59.975,120.007 0,82.763 66.225,146.904 148.987,146.904 41.382,0 70.356,-14.483 91.047,-28.967 109.661,-80.694 229.84,-130.352 370.536,-130.352 130.352,0 209.15,51.727 209.15,136.559 l 0,4.139 C -316,53.796 -365.776,95.177 -607.857,157.25 -899.596,231.736 -1088,312.43 -1088,600.031 l 0,4.138 c 0,96.11 28.186,180.314 78.475,248.469 -1.234,-41.078 11.604,-83.656 38.45,-127.035 22.021,-35.583 52.192,-69.664 89.698,-101.297 29.459,-24.846 63.528,-48.293 101.273,-69.691 51.062,-28.948 94.717,-46.18 111.381,-52.337 47.626,-19.98 115.127,-39.455 209.505,-63.634 C -165.41,362.088 0,256.565 0,4.138 L 0,0 Z m -121.846,912.461 c 35.174,-20.691 70.348,-64.141 70.348,-126.213 0,-82.764 -66.21,-146.905 -148.973,-146.905 -31.036,0 -55.865,8.277 -80.694,22.76 -105.523,62.072 -205.071,97.247 -304.386,97.247 C -707.626,759.35 -772,703.484 -772,633.136 l 0,-4.138 c 0,-2.556 0.28,-5.063 0.372,-7.529 -82.606,50.87 -125.26,101.847 -146.868,136.762 -25.75,41.608 -34.484,80.609 -26.074,115.921 12.108,50.833 57.127,84.837 82.868,100.582 10.934,6.688 18.843,11.269 24.453,14.391 73.648,33.453 160.424,51.618 256.061,51.618 175.871,0 328.99,-45.519 459.342,-128.282 M 26.698,192.328 c -11.822,27.388 -26.863,53.359 -44.704,77.191 -17.254,23.048 -37.681,44.827 -60.713,64.732 -42.624,36.837 -94.971,68.435 -160.035,96.599 -56.419,24.423 -123.382,46.597 -204.718,67.79 l -0.123,0.032 -0.123,0.032 c -81.045,20.763 -146.816,39.173 -192.604,57.326 -1.68,0.954 -3.469,1.77 -5.365,2.415 -0.084,0.029 -1.58,0.542 -4.288,1.536 -12.256,5.183 -22.856,10.358 -31.678,15.573 -13.423,7.935 -22.238,15.448 -26.469,22.969 -2.424,4.308 -5.878,12.153 -5.878,30.475 l 0,4.138 c 0,15.809 7.362,28.679 22.029,39.346 22.05,16.036 58.54,24.868 102.536,24.868 42.129,0 84.846,-7.28 130.473,-22.255 44.706,-14.673 91.283,-36.403 142.332,-66.432 l 0.113,-0.057 0.105,-0.058 c 36.498,-21.289 72.069,-31.205 111.938,-31.205 28.37,0 55.854,5.363 81.685,15.938 25.254,10.34 47.881,25.215 67.252,44.214 19.508,19.132 34.803,41.552 45.462,66.637 10.999,25.886 16.577,53.514 16.577,82.116 0,39.897 -10.836,78.407 -31.336,111.368 -17.346,27.89 -41.047,51.279 -68.592,67.701 -143.97,91.188 -309.418,137.426 -491.754,137.426 -79.611,0 -154.834,-11.582 -223.58,-34.425 -11.854,-3.939 -23.464,-8.204 -34.834,-12.776 -5.248,-0.987 -10.035,-3.105 -14.579,-5.296 -3.082,-1.486 -6.696,-3.367 -10.802,-5.615 -44.605,-20.464 -85.06,-46.032 -120.779,-76.398 -52.354,-44.509 -93.051,-98.057 -121.059,-159.156 C -1135.504,746.489 -1150,677.548 -1150,604.169 l 0,-4.138 c 0,-39.266 3.234,-76.343 9.714,-110.198 6.522,-34.073 16.491,-66.158 29.684,-95.365 13.006,-28.795 29.541,-55.763 49.171,-80.155 18.67,-23.199 40.775,-44.866 65.714,-64.4 90.669,-71.019 214.406,-112.421 372.304,-152.736 113.332,-29.062 182.543,-53.45 217.813,-76.749 11.629,-7.683 19.235,-14.842 22.904,-21.885 1.943,-3.73 4.696,-10.426 4.696,-25.44 l 0,-4.139 c 0,-20.867 -8.671,-35.738 -27.735,-48.219 -25.945,-16.986 -68.438,-26.34 -119.496,-26.34 -61.021,0 -118.456,10.178 -175.497,31.118 -53.306,19.568 -105.063,48.082 -158.184,87.171 l -0.602,0.435 -0.606,0.421 c -16.958,11.87 -34.038,20.838 -52.21,27.418 -23.377,8.464 -48.405,12.756 -74.387,12.756 -28.371,0 -55.854,-5.363 -81.685,-15.938 -25.253,-10.339 -47.88,-25.215 -67.252,-44.214 -19.507,-19.132 -34.803,-41.552 -45.461,-66.636 -10.999,-25.887 -16.577,-53.514 -16.577,-82.116 0,-67.614 32.956,-132.916 86.019,-170.495 84.558,-60.681 178.288,-107.447 278.599,-139.005 97.67,-30.728 199.127,-46.308 301.551,-46.308 171.089,0 317.063,45.136 422.139,130.529 55.091,44.771 97.65,99.667 126.721,163.165 C 47.049,-152.396 62,-79.287 62,0 l 0,4.138 c 0,35.026 -2.829,68.48 -8.635,99.434 -5.878,31.34 -14.773,61.202 -26.667,88.756" /></g><g
           transform="translate(3821,602.8131)"
           id="g24"><path
             id="path26"
             style="fill:#292929;fill-opacity:1;fill-rule:nonzero;stroke:none"
             d="m 0,0 c 0,-306.223 -221.501,-500.715 -540.138,-500.715 -200.7,0 -339.383,53.796 -455.251,136.558 -37.244,26.899 -64.169,68.28 -64.169,122.075 0,82.763 68.265,153.112 151.029,153.112 37.243,0 62.064,-10.345 86.893,-28.967 88.971,-64.142 173.624,-93.108 275.009,-93.108 134.489,0 233.627,72.417 233.627,200.7 l 0,4.137 c 0,124.145 -105.348,196.562 -256.39,196.562 -122.076,0 -175.785,-37.243 -219.234,-37.243 -45.52,0 -80.651,18.622 -144.792,64.141 -43.45,31.037 -62.05,74.487 -57.912,128.283 l 28.977,490.732 c 4.139,76.556 64.153,136.92 140.708,136.92 l 628.998,0 c 76.556,0 140.697,-64.479 140.697,-141.035 0,-76.555 -64.141,-138.965 -140.697,-138.965 l -488.301,0 -16.553,-250.382 c 57.935,14.483 109.772,24.817 190.466,24.817 C -221.501,467.622 0,331.051 0,4.138 L 0,0 Z m 17.813,238.917 c -28.407,66.21 -70.48,122.532 -124.942,167.401 -50.817,41.867 -112.348,73.603 -182.831,94.328 -65.358,19.22 -138.433,28.964 -217.17,28.964 -48.965,0 -88.383,-3.62 -123.094,-9.174 l 7.315,110.751 430.264,0 c 26.982,0 53.291,5.256 78.197,15.669 24.013,10.04 45.63,24.37 64.251,42.614 18.759,18.381 33.526,39.784 43.891,63.628 10.855,24.97 16.358,51.437 16.358,78.672 0,27.158 -5.468,53.654 -16.254,78.755 -10.295,23.962 -24.946,45.541 -43.545,64.14 -18.6,18.599 -40.18,33.611 -64.141,43.907 -25.102,10.785 -51.599,16.615 -78.757,16.615 l -628.998,0 c -53.139,0 -103.174,-20.703 -140.886,-57.638 -36.917,-36.155 -58.831,-85.274 -61.713,-137.986 l -28.926,-489.769 c -2.775,-37.172 2.727,-71.564 16.355,-102.134 14.177,-31.804 36.855,-59.016 67.403,-80.836 l 0.078,-0.067 0.077,-0.06 c 39.263,-27.865 65.16,-43.776 89.384,-54.913 30.671,-14.102 59.693,-20.671 91.334,-20.671 25.164,0 48.671,6.913 73.558,14.233 34.855,10.251 78.232,23.008 145.763,23.008 31.855,0 61.15,-3.684 87.072,-10.952 23.933,-6.71 44.416,-16.315 60.879,-28.544 15.134,-11.242 26.544,-24.681 34.255,-39.942 8.085,-15.998 12.01,-34.545 12.01,-55.124 l 0,-4.137 c 0,-42.877 -14.555,-76.694 -43.604,-100.511 -14.491,-11.881 -32.303,-21.192 -53.113,-27.676 -22.389,-6.976 -47.521,-10.513 -74.783,-10.513 -44.185,0 -84.18,6.286 -122.317,19.217 -38.399,13.021 -76.388,33.261 -116.146,61.872 -37.977,28.341 -76.118,40.986 -123.586,40.986 -28.787,0 -56.83,-5.881 -83.353,-17.479 -25.226,-11.031 -47.918,-26.713 -67.449,-46.612 -19.403,-19.77 -34.677,-42.674 -45.396,-68.077 -11.174,-26.479 -16.839,-54.385 -16.839,-82.944 0,-36.309 8.727,-70.389 25.939,-101.292 15.391,-27.633 36.891,-51.537 63.902,-71.044 l 0.132,-0.096 0.132,-0.094 c 67.778,-48.414 137.418,-83.71 212.897,-107.905 84.391,-27.052 175.435,-40.202 278.335,-40.202 85.721,0 166.248,13.011 239.343,38.674 73.455,25.79 138.042,63.83 191.965,113.064 54.805,50.039 97.415,110.45 126.426,179.553 C 46.949,-161.243 62,-83.379 62,0 l 0,4.138 C 62,91.758 47.06,170.75 17.813,238.917" /></g><g
           transform="translate(1756.8597,675.0929)"
           id="g28"><path
             id="path30"
             style="fill:#292929;fill-opacity:1;fill-rule:nonzero;stroke:none"
             d="m 0,0 c 20.078,-53.738 49.181,-101.748 86.478,-142.695 76.722,-84.229 181.986,-131.299 296.391,-132.538 l 2.322,-0.026 2.316,0.149 c 77.71,4.975 146.046,25.931 208.912,64.065 l 1.351,0.818 1.307,0.888 c 24.456,16.595 53.999,25.734 83.187,25.734 4.383,0 8.679,-0.207 13.135,-0.631 38.902,-3.705 74.013,-22.225 98.865,-52.149 24.735,-29.782 36.347,-67.289 32.698,-105.612 -2.062,-21.654 -8.35,-41.964 -18.69,-60.366 -10.298,-18.329 -24.087,-33.741 -40.993,-45.818 -56.237,-37.456 -114.972,-64.996 -179.524,-84.18 -65.134,-19.358 -135.294,-29.959 -214.49,-32.411 l -10.975,-0.34 c -7.297,-0.153 -14.033,-0.221 -21.234,-0.221 -45.083,0 -90.704,5.04 -135.594,14.98 -43.728,9.683 -87.182,24.102 -129.155,42.855 -41.229,18.421 -81.284,41.134 -119.055,67.507 -37.425,26.133 -72.774,55.957 -105.023,88.646 -136.109,137.969 -211.089,323.473 -211.089,522.34 l 0,4.097 c 0,198.921 74.707,384.606 210.319,522.848 32.339,32.967 67.543,63.078 104.614,89.497 37.854,26.977 77.842,50.221 118.843,69.085 86.56,39.827 176.37,60.02 266.931,60.02 87.507,0 164.186,-9.421 234.415,-28.801 69.355,-19.139 132.502,-48.042 193.018,-88.349 16.627,-11.884 30.151,-27.148 40.2,-45.379 10.102,-18.326 16.287,-38.784 18.384,-60.807 7.554,-79.322 -51.813,-150.093 -132.344,-157.762 -4.323,-0.412 -8.995,-0.63 -13.513,-0.63 -29.646,0 -59.442,9.14 -83.899,25.735 l -1.307,0.886 -1.35,0.819 c -30.735,18.644 -61.631,32.798 -94.454,43.274 -35.609,11.365 -72.646,18.16 -113.226,20.775 l -2.318,0.15 -2.323,-0.025 C 268.816,625.223 163.532,578.471 86.712,494.784 10.909,412.205 -30.86,300.122 -30.86,179.185 l 0,-4.093 C -30.86,113.677 -20.462,54.768 0,0 m 383.762,564.432 c 73.023,-4.706 129.452,-24.815 179.523,-55.187 35.157,-23.856 77.246,-36.431 118.716,-36.431 6.422,0 13.016,0.302 19.4,0.91 114.486,10.902 198.978,111.998 188.183,225.359 -5.721,60.076 -34.72,115.757 -85.137,151.379 -131.793,88.014 -278.518,128.08 -462.598,128.08 -206.45,0 -396.277,-96.127 -534.649,-237.184 C -338.61,592.72 -420.86,391.615 -420.86,175.092 l 0,-4.097 c 0,-216.53 82.568,-417.497 228.952,-565.882 139.413,-141.318 330.687,-232.446 532.953,-232.446 12.04,0 22.228,0.181 33.956,0.526 0.065,-10e-4 0.139,-10e-4 0.139,-10e-4 l 0,0.066 c 167,5.17 304.559,45.533 427.282,127.489 50.417,35.622 80.529,91.303 86.25,151.378 10.796,113.363 -72.916,214.457 -187.401,225.359 -6.384,0.609 -12.596,0.911 -19.009,0.911 -41.416,0 -82.842,-12.575 -117.999,-36.43 -50.115,-30.399 -107.623,-50.52 -180.74,-55.202 C 183.416,-211.068 31.14,-45.401 31.14,175.092 l 0,4.093 c 0,218.242 152.421,383.136 352.622,385.247" /></g></g></g></g></svg>